<svg xmlns="http://www.w3.org/2000/svg" width="38.476" height="40" viewBox="0 0 38.476 40">
    <path id="buy" d="M38.142,29.306a1.521,1.521,0,0,0-1.246-.689H6.812l-.447-5.651a1.673,1.673,0,0,0-1.574-1.632H1.58a1.807,1.807,0,0,0,0,3.585H3.346L5.078,46.805c0,.026,0,.051,0,.077,0,.069.011.136.022.2l.063.8c0,.015,0,.03,0,.045a7.171,7.171,0,0,0,2.272,4.627A5.881,5.881,0,0,0,6.421,55.9c0,3,2.149,5.434,4.791,5.434S16,58.9,16,55.9a6.064,6.064,0,0,0-.286-1.849h8.649a6.062,6.062,0,0,0-.286,1.849c0,3,2.149,5.434,4.791,5.434S33.661,58.9,33.661,55.9s-2.149-5.434-4.791-5.434H11.222a2.952,2.952,0,0,1-2.7-2.018l25.253-1.683a1.647,1.647,0,0,0,1.44-1.354l3.211-14.566a1.983,1.983,0,0,0-.288-1.538Z" transform="translate(0 -21.334)" fill="#fff"/>
</svg>
